HIERARCHY
ROOT Hips
{
	OFFSET	0.00	0.00	0.00
	CHANNELS 6 Xposition Yposition Zposition Zrotation Xrotation Yrotation
	JOINT LeftUpLeg
	{
		OFFSET	 0.126116	-0.065224	 0.014019
		CHANNELS 3 Zrotation Xrotation Yrotation
		JOINT LeftLeg
		{
			OFFSET	 0.000000	 0.569914	 0.000000
			CHANNELS 3 Zrotation Xrotation Yrotation
			JOINT LeftFoot
			{
				OFFSET	 0.000000	 0.544423	 0.000000
				CHANNELS 3 Zrotation Xrotation Yrotation
				JOINT LeftToeBase
				{
					OFFSET	 0.000000	 0.207117	 0.000000
					CHANNELS 3 Zrotation Xrotation Yrotation
					End Site
					{
						OFFSET	 0.000000	 0.207117	 0.000000
					}
				}
			}
		}
	}
	JOINT RightUpLeg
	{
		OFFSET	-0.124023	-0.065224	 0.008373
		CHANNELS 3 Zrotation Xrotation Yrotation
		JOINT RightLeg
		{
			OFFSET	 0.000000	 0.570047	 0.000000
			CHANNELS 3 Zrotation Xrotation Yrotation
			JOINT RightFoot
			{
				OFFSET	 0.000000	 0.544354	 0.000000
				CHANNELS 3 Zrotation Xrotation Yrotation
				JOINT RightToeBase
				{
					OFFSET	 0.000000	 0.207540	 0.000000
					CHANNELS 3 Zrotation Xrotation Yrotation
					End Site
					{
						OFFSET	 0.000000	 0.207540	 0.000000
					}
				}
			}
		}
	}
	JOINT Spine
	{
		OFFSET	 0.000184	 0.117403	 0.007763
		CHANNELS 3 Zrotation Xrotation Yrotation
		JOINT Spine1
		{
			OFFSET	 0.000000	 0.137269	 0.000000
			CHANNELS 3 Zrotation Xrotation Yrotation
			JOINT Spine2
			{
				OFFSET	 0.000000	 0.156879	 0.000000
				CHANNELS 3 Zrotation Xrotation Yrotation
				JOINT LeftShoulder
				{
					OFFSET	 0.080501	 0.160143	 0.002496
					CHANNELS 3 Zrotation Xrotation Yrotation
					JOINT LeftArm
					{
						OFFSET	 0.000000	 0.164363	 0.000000
						CHANNELS 3 Zrotation Xrotation Yrotation
						JOINT LeftForeArm
						{
							OFFSET	 0.000000	 0.364576	 0.000000
							CHANNELS 3 Zrotation Xrotation Yrotation
							JOINT LeftHand
							{
								OFFSET	 0.000000	 0.360812	 0.000000
								CHANNELS 3 Zrotation Xrotation Yrotation
								JOINT LeftHandIndex1
								{
									OFFSET	 0.000000	 0.086006	 0.000000
									CHANNELS 3 Zrotation Xrotation Yrotation
									JOINT LeftHandIndex2
									{
										OFFSET	 0.000000	 0.047237	 0.000000
										CHANNELS 3 Zrotation Xrotation Yrotation
										JOINT LeftHandIndex3
										{
											OFFSET	-0.004284	 0.038165	 0.000551
											CHANNELS 3 Zrotation Xrotation Yrotation
											End Site
											{
												OFFSET	-0.004284	 0.038165	 0.000551
											}
										}
									}
								}
							}
						}
					}
				}
				JOINT Neck
				{
					OFFSET	 0.000000	 0.176489	 0.000000
					CHANNELS 3 Zrotation Xrotation Yrotation
					JOINT Head
					{
						OFFSET	 0.000000	 0.077941	 0.001747
						CHANNELS 3 Zrotation Xrotation Yrotation
						End Site
						{
							OFFSET	 0.000000	 0.077941	 0.001747
						}
					}
				}
				JOINT RightShoulder
				{
					OFFSET	-0.080363	 0.159706	-0.000306
					CHANNELS 3 Zrotation Xrotation Yrotation
					JOINT RightArm
					{
						OFFSET	 0.000000	 0.164196	 0.000000
						CHANNELS 3 Zrotation Xrotation Yrotation
						JOINT RightForeArm
						{
							OFFSET	 0.000000	 0.365611	 0.000000
							CHANNELS 3 Zrotation Xrotation Yrotation
							JOINT RightHand
							{
								OFFSET	 0.000000	 0.360648	 0.000000
								CHANNELS 3 Zrotation Xrotation Yrotation
								JOINT RightHandIndex1
								{
									OFFSET	 0.000000	 0.069977	 0.000000
									CHANNELS 3 Zrotation Xrotation Yrotation
									JOINT RightHandIndex2
									{
										OFFSET	 0.000000	 0.052305	 0.000000
										CHANNELS 3 Zrotation Xrotation Yrotation
										JOINT RightHandIndex3
										{
											OFFSET	 0.009002	 0.042196	 0.000782
											CHANNELS 3 Zrotation Xrotation Yrotation
											End Site
											{
												OFFSET	 0.009002	 0.042196	 0.000782
											}
										}
									}
								}
							}
						}
					}
				}
			}
		}
	}
}
MOTION
Frames:    9
Frame Time: 0.03333334
 0.009124	 1.263857	-0.333103	-0.006152	 3.209214	 178.793400	 179.452600	-0.285528	-4.237309	 3.277378	-16.149890	 2.929851	-5.630913	 74.357600	 7.740419	 1.331492	 28.938720	-2.729976	 179.530600	-18.068950	 8.060814	-1.444835	-4.755169	-5.783607	 2.032638	 80.831490	-2.822015	-1.305359	 28.580640	 2.604827	-1.094511	 3.345667	-0.900944	-1.647096	 3.500519	-1.242182	-1.663279	-2.098819	-0.652615	-113.447000	 5.126754	 93.000210	 9.778464	 54.103040	 35.387840	 12.661340	-0.649812	-0.011743	-6.957454	-17.651460	-18.357860	-6.580301	 5.266122	 0.000000	 0.000000	 0.000000	 0.000000	 0.000000	 0.000000	 0.000000	 3.829731	-0.643649	-0.250065	 3.208128	 1.181521	 1.445867	 114.205800	-4.428889	-88.482120	-51.306570	 10.544600	 45.190560	-94.184000	-2.247085	-2.358895	-25.243390	-20.223090	-25.843640	-0.359781	 10.582440	 0.744568	 11.977790	 9.317312	-2.096065	-8.359142	 3.150337	 0.104224
 0.009186	 1.264055	-0.332224	-0.000760	 3.210129	 178.782700	 179.468100	-0.336961	-4.249018	 3.251262	-16.027950	 2.917736	-5.604149	 74.255120	 7.721973	 1.331492	 28.938720	-2.729976	 179.537600	-18.026080	 8.051476	-1.445037	-4.755846	-5.791581	 1.951273	 80.762140	-2.741000	-1.305363	 28.580660	 2.603990	-1.095024	 3.342558	-0.898105	-1.643056	 3.505031	-1.236636	-1.665711	-2.106264	-0.651049	-113.447100	 5.124976	 92.999830	 9.605052	 54.041400	 35.539600	 12.921290	-0.662939	-0.008783	-7.153832	-17.778660	-18.384950	-6.580301	 5.266122	 0.000000	 0.000000	 0.000000	 0.000000	 0.000000	 0.000000	 0.000000	 3.832620	-0.650276	-0.250965	 3.218985	 1.185212	 1.439617	 114.205300	-4.425376	-88.484660	-51.131400	 10.459290	 44.816750	-94.449230	-2.246266	-2.369263	-25.553210	-20.202180	-26.022540	-0.359781	 10.582430	 0.744568	 11.977790	 9.317295	-2.096062	-8.359142	 3.150329	 0.104225
 0.009264	 1.264257	-0.331345	 0.005471	 3.211092	 178.770300	 179.485100	-0.389912	-4.262522	 3.224658	-15.903590	 2.904797	-5.580222	 74.151380	 7.706216	 1.331492	 28.938720	-2.729976	 179.546000	-17.982980	 8.041308	-1.445308	-4.756722	-5.800819	 1.864580	 80.693080	-2.654712	-1.305366	 28.580680	 2.603025	-1.095618	 3.338966	-0.894900	-1.638924	 3.510095	-1.230294	-1.668244	-2.114962	-0.649229	-113.447100	 5.122925	 92.999370	 9.433006	 53.981060	 35.692110	 13.183030	-0.676129	-0.005701	-7.362268	-17.926770	-18.416720	-6.580301	 5.266122	 0.000000	 0.000000	 0.000000	 0.000000	 0.000000	 0.000000	 0.000000	 3.835947	-0.657910	-0.252001	 3.231487	 1.189587	 1.432415	 114.204700	-4.421311	-88.487610	-50.932060	 10.371640	 44.376810	-94.782100	-2.245210	-2.382312	-25.896860	-20.182330	-26.243460	-0.359780	 10.582400	 0.744568	 11.977790	 9.317274	-2.096058	-8.359142	 3.150318	 0.104226
 0.009371	 1.264486	-0.330361	 0.013411	 3.212327	 178.754400	 179.505900	-0.451319	-4.279820	 3.194206	-15.761090	 2.889266	-5.557149	 74.033360	 7.692139	 1.331492	 28.938720	-2.729976	 179.556800	-17.934800	 8.028635	-1.445368	-4.756940	-5.812598	 1.758896	 80.615140	-2.549646	-1.305371	 28.580710	 2.601789	-1.096399	 3.334371	-0.891136	-1.634389	 3.516223	-1.222459	-1.671150	-2.125975	-0.646921	-113.447200	 5.120316	 92.998800	 9.242796	 53.915370	 35.862950	 13.477990	-0.690997	-0.002157	-7.611209	-18.118270	-18.458340	-6.580301	 5.266122	 0.000000	 0.000000	 0.000000	 0.000000	 0.000000	 0.000000	 0.000000	 3.840213	-0.667697	-0.253329	 3.247521	 1.195119	 1.423179	 114.203900	-4.416131	-88.491360	-50.682150	 10.272890	 43.798460	-95.248150	-2.243623	-2.400581	-26.316300	-20.162910	-26.549360	-0.359779	 10.582380	 0.744568	 11.977790	 9.317248	-2.096053	-8.359141	 3.150304	 0.104227
 0.009499	 1.264717	-0.329390	 0.022324	 3.213708	 178.736600	 179.528400	-0.513824	-4.299069	 3.163588	-15.617530	 2.872957	-5.537786	 73.915310	 7.681338	 1.331492	 28.938720	-2.729976	 179.569500	-17.886350	 8.015069	-1.445938	-4.758783	-5.825903	 1.646866	 80.539070	-2.438231	-1.305377	 28.580750	 2.600404	-1.097286	 3.329247	-0.887146	-1.630189	 3.522753	-1.213860	-1.673991	-2.138111	-0.644315	-113.447200	 5.117383	 92.998150	 9.056897	 53.852220	 36.032800	 13.773570	-0.705812	 0.001427	-7.875457	-18.334310	-18.506230	-6.580301	 5.266122	 0.000000	 0.000000	 0.000000	 0.000000	 0.000000	 0.000000	 0.000000	 3.844992	-0.678663	-0.254816	 3.265491	 1.201273	 1.412828	 114.203100	-4.410297	-88.495580	-50.410460	 10.177110	 43.132500	-95.818980	-2.241456	-2.422869	-26.757980	-20.147830	-26.921400	-0.359778	 10.582350	 0.744568	 11.977790	 9.317220	-2.096046	-8.359141	 3.150289	 0.104229
 0.009632	 1.264925	-0.328530	 0.031132	 3.215136	 178.719100	 179.550200	-0.571236	-4.317916	 3.135767	-15.486950	 2.857535	-5.523700	 73.808690	 7.674634	 1.331492	 28.938720	-2.729976	 179.582200	-17.843670	 8.002164	-1.446190	-4.759632	-5.839009	 1.540570	 80.471120	-2.332774	-1.305382	 28.580780	 2.599035	-1.098160	 3.324159	-0.883570	-1.627012	 3.528817	-1.205698	-1.676313	-2.149938	-0.641743	-113.447300	 5.114461	 92.997520	 8.894242	 53.798350	 36.183540	 14.038330	-0.719141	 0.004678	-8.125335	-18.549050	-18.554300	-6.580301	 5.266122	 0.000000	 0.000000	 0.000000	 0.000000	 0.000000	 0.000000	 0.000000	 3.849714	-0.689498	-0.256284	 3.283247	 1.207372	 1.402598	 114.202200	-4.404540	-88.499740	-50.151740	 10.094990	 42.456320	-96.429430	-2.238924	-2.446758	-27.165330	-20.138770	-27.318420	-0.359777	 10.582320	 0.744568	 11.977790	 9.317191	-2.096041	-8.359140	 3.150273	 0.104230
 0.009783	 1.265134	-0.327683	 0.040680	 3.216536	 178.700100	 179.573300	-0.629912	-4.338364	 3.107658	-15.354860	 2.841424	-5.512787	 73.701740	 7.670768	 1.331492	 28.938720	-2.729976	 179.596400	-17.801100	 7.988597	-1.446546	-4.760784	-5.853288	 1.429247	 80.404140	-2.222499	-1.305388	 28.580800	 2.597549	-1.099125	 3.318645	-0.880019	-1.624563	 3.534183	-1.197104	-1.678404	-2.162147	-0.638945	-113.447300	 5.111334	 92.996840	 8.735647	 53.747350	 36.332250	 14.302940	-0.732401	 0.008056	-8.388047	-18.783350	-18.607100	-6.580301	 5.266122	 0.000000	 0.000000	 0.000000	 0.000000	 0.000000	 0.000000	 0.000000	 3.854842	-0.701265	-0.257878	 3.302532	 1.214005	 1.391481	 114.201300	-4.398288	-88.504260	-49.883120	 10.016560	 41.701930	-97.139220	-2.235622	-2.474468	-27.575900	-20.134180	-27.781920	-0.359776	 10.582290	 0.744568	 11.977790	 9.317161	-2.096034	-8.359139	 3.150257	 0.104232
 0.009977	 1.265374	-0.326733	 0.052372	 3.218352	 178.676300	 179.601500	-0.698222	-4.363868	 3.075333	-15.202680	 2.822311	-5.503670	 73.579400	 7.669177	 1.331492	 28.938720	-2.729976	 179.614100	-17.753640	 7.971682	-1.446661	-4.761161	-5.870923	 1.294728	 80.328300	-2.089591	-1.305395	 28.580850	 2.595714	-1.100340	 3.311842	-0.875829	-1.623235	 3.540098	-1.186634	-1.680156	-2.176881	-0.635486	-113.447400	 5.107430	 92.995960	 8.559099	 53.692360	 36.500870	 14.606380	-0.747608	 0.011977	-8.704978	-19.073640	-18.673970	-6.580301	 5.266122	 0.000000	 0.000000	 0.000000	 0.000000	 0.000000	 0.000000	 0.000000	 3.861172	-0.715795	-0.259844	 3.326347	 1.222161	 1.377750	 114.200200	-4.390576	-88.509840	-49.570810	 9.930474	 40.742760	-98.076080	-2.230746	-2.510942	-28.038210	-20.134000	-28.399150	-0.359775	 10.582250	 0.744568	 11.977790	 9.317121	-2.096027	-8.359138	 3.150237	 0.104234
 0.010196	 1.265614	-0.325799	 0.065002	 3.220385	 178.650900	 179.631400	-0.767973	-4.391041	 3.042726	-15.048990	 2.802333	-5.498713	 73.456730	 7.671225	 1.331492	 28.938720	-2.729976	 179.633900	-17.706350	 7.954542	-1.447114	-4.762655	-5.890051	 1.155248	 80.254140	-1.952060	-1.305403	 28.580890	 2.593730	-1.101669	 3.304504	-0.871832	-1.623198	 3.545739	-1.175762	-1.681440	-2.192228	-0.631756	-113.447400	 5.103236	 92.995050	 8.389076	 53.641610	 36.666250	 14.910080	-0.762776	 0.015984	-9.040029	-19.388310	-18.747440	-6.580301	 5.266122	 0.000000	 0.000000	 0.000000	 0.000000	 0.000000	 0.000000	 0.000000	 3.868013	-0.731494	-0.261967	 3.352089	 1.230955	 1.362908	 114.199000	-4.382243	-88.515850	-49.260710	 9.844559	 39.673390	-99.152820	-2.224397	-2.552846	-28.484020	-20.137920	-29.119930	-0.359774	 10.582210	 0.744568	 11.977790	 9.317080	-2.096018	-8.359138	 3.150214	 0.104236
